<svg xmlns="http://www.w3.org/2000/svg" width="662" height="174" viewBox="0 0 662 174">
  <defs>
    <style>
      .cls-1 {
        fill: #fff;
        fill-rule: evenodd;
      }
    </style>
  </defs>
  <path id="Forma_2" data-name="Forma 2" class="cls-1" d="M21,174s-24.532-8.779-8-26C0.583,133.108-.866,116.092,15,106c6.911-21.248,19.173-22.618,29-20A22.414,22.414,0,0,1,75,62c-9.516-20.943,15.182-31.872,25-25,2.209,2.945,9.924-16.044,25-5,0.9-36.62,50.572-42.818,61-11,11.975-3.423,26.16,3.256,30,13,19.485-6.588,32.887,6.265,31,27a7.566,7.566,0,0,1,8,5c5.159-14.648,22-9,22-9,2.98-26.832,36.1-26.339,44-11,22.679-12.235,56.559,9.551,53,42,5.349-6,15.888-4.99,20,3,31.622-51.049,75.866-18.657,80,5,2.524-7.578,33.663-9.521,39,21,6.744-14.806,28.783-13.592,34,0-3.466-24.335,42.033-39.769,56-18,38-22.209,78.418,25.425,48,61-3.627,3.633-12,13-12,13Z"/>
</svg>
