<svg xmlns="http://www.w3.org/2000/svg" width="61" height="47" viewBox="0 0 61 47">
  <defs>
    <style>
      .cls-1 {
        fill: #fff;
        fill-rule: evenodd;
      }
    </style>
  </defs>
  <path id="Forma_1" data-name="Forma 1" class="cls-1" d="M-34,174l470-1L435,22s-12.909-8.41-25-1c-1.951-3.831,2.088-22.456-19-33-21.244-6.793-34.406,3.976-38,10s-4,10-4,10-20.36-4.312-29,13c-29.786-8.646-36,20.185-31,27-8.132,3.22-18.575,9.952-19,27-5-1.465-17.767-2.522-24,10-23.913-7.448-39.751,6.95-44,14-19.122-7.822-32,0-32,0-13.958-55.6-87.118-31.381-80,8-17.175.027-22.067,10.175-23,17-28.474-19.052-54.839,5.9-51,23-9.771-.646-19.432,5.06-20,16C-10.109,156.749-31.585,160.929-34,174Z"/>
  <path id="Forma_8" data-name="Forma 8" class="cls-1" d="M23,7S37.8-5.254,48,11c11.906,3.978,14.676,14.4,4,23,0.2,2.26-2.806,8.075-11,6-3.752,5.9-16.155,7.218-22-5C0.909,41.511-3.768,16.084,12,13,14.2,6.5,19.552,6.118,23,7Z"/>
</svg>
