<svg xmlns="http://www.w3.org/2000/svg" width="101" height="84" viewBox="0 0 101 84">
  <defs>
    <style>
      .cls-1 {
        fill: #fff;
        fill-rule: evenodd;
      }
    </style>
  </defs>
  <path id="Forma_1" data-name="Forma 1" class="cls-1" d="M0,192l470-1L469,40s-12.909-8.41-25-1c-1.951-3.831,2.088-22.456-19-33-21.244-6.793-34.406,3.976-38,10s-4,10-4,10-20.36-4.312-29,13c-29.786-8.646-36,20.185-31,27-8.132,3.22-18.575,9.952-19,27-5-1.465-17.767-2.522-24,10-23.913-7.448-39.751,6.95-44,14-19.122-7.822-32,0-32,0-13.958-55.6-87.118-31.381-80,8-17.176.027-22.067,10.175-23,17-28.474-19.052-54.839,5.9-51,23-9.771-.646-19.432,5.06-20,16C23.891,174.749,2.415,178.929,0,192Z"/>
  <path id="Forma_10" data-name="Forma 10" class="cls-1" d="M6,39s-17.163,15.726,6,27C9.479,77.274,29.991,91.293,45,72c3.938,3.515,11.74,2.527,13-1,6.6,7.751,23.188,6.151,25-8,9.377,2.4,26.487-12.563,8-26,4.205-2.4,3.336-20.512-14-22C75.58-6.817,31.29-3.592,30,19,14.177,11.786,3.321,27.5,6,39Z"/>
</svg>
