<svg xmlns="http://www.w3.org/2000/svg" width="630" height="189" viewBox="0 0 630 189">
  <defs>
    <style>
      .cls-1 {
        fill: #fff;
        fill-rule: evenodd;
      }
    </style>
  </defs>
  <path id="Forma_1" data-name="Forma 1" class="cls-1" d="M6,189l603,1s26.149-16.553,5-37c12.191-9.457,4.669-34.043-17-36,9.238-17-6.151-58.245-43-49-0.084-20.516-46.187-33.279-59-9-0.158-23.818-33.763-36-45-23-1.951-3.831,2.088-22.456-19-33-21.244-6.793-34.406,3.976-38,10s-4,10-4,10-20.36-4.312-29,13c-29.786-8.646-36,20.185-31,27-8.132,3.22-18.575,9.952-19,27-5-1.465-17.767-2.522-24,10-23.913-7.448-39.751,6.95-44,14-19.122-7.822-32,0-32,0-13.958-55.6-87.118-31.381-80,8-17.176.027-22.067,10.175-23,17-28.474-19.052-54.839,5.9-51,23-9.771-.646-19.432,5.06-20,16C29.891,171.749,8.415,175.929,6,189Z"/>
  <path id="Forma_12" data-name="Forma 12" class="cls-1" d="M581,27"/>
</svg>
