<svg xmlns="http://www.w3.org/2000/svg" width="130" height="84" viewBox="0 0 130 84">
  <defs>
    <style>
      .cls-1 {
        fill: #fff;
        fill-rule: evenodd;
      }
    </style>
  </defs>
  <path id="Forma_1" data-name="Forma 1" class="cls-1" d="M0,192l470-1L469,40s-12.909-8.41-25-1c-1.951-3.831,2.088-22.456-19-33-21.244-6.793-34.406,3.976-38,10s-4,10-4,10-20.36-4.312-29,13c-29.786-8.646-36,20.185-31,27-8.132,3.22-18.575,9.952-19,27-5-1.465-17.767-2.522-24,10-23.913-7.448-39.751,6.95-44,14-19.122-7.822-32,0-32,0-13.958-55.6-87.118-31.381-80,8-17.176.027-22.067,10.175-23,17-28.474-19.052-54.839,5.9-51,23-9.771-.646-19.432,5.06-20,16C23.891,174.749,2.415,178.929,0,192Z"/>
  <path id="Forma_9" data-name="Forma 9" class="cls-1" d="M61,13S80.151,2.4,91,19c9.465-2.315,18.154.627,19,10,25.067-1.471,24.752,43.475-9,33-1.7,5.107-4.647,7.621-14,6-2.321,12.185-25.872,19.973-38,5-8.346,10.4-28.8,5.881-30-1C7.718,73-5.118,60.762,6,45c-8.58-6.149-3.229-28.625,16-27C30.186-5.481,58.265,2.581,61,13Z"/>
</svg>
